<svg width="112" height="23" viewBox="0 0 112 23" fill="none" xmlns="http://www.w3.org/2000/svg">
<path d="M3.67578 22L0.94825 1.24706H4.83201L6.84801 19.2725H7.38166L9.9906 1.24706H16.7501L19.3591 19.2725H19.8927L21.9087 1.24706H25.7925L23.065 22H16.3054L13.6372 3.55953H13.1035L10.4353 22H3.67578ZM34.679 22.4151C33.2164 22.4151 31.9219 22.1087 30.7953 21.496C29.6884 20.8635 28.8188 19.984 28.1863 18.8574C27.5736 17.7111 27.2673 16.3671 27.2673 14.8254V14.4696C27.2673 12.928 27.5736 11.5939 28.1863 10.4673C28.799 9.32094 29.6588 8.44141 30.7656 7.82871C31.8724 7.19623 33.1572 6.88 34.6197 6.88C36.0626 6.88 37.3176 7.20612 38.3849 7.85835C39.4522 8.49082 40.2823 9.38023 40.8753 10.5266C41.4682 11.6532 41.7647 12.9675 41.7647 14.4696V15.7445H31.0621C31.1016 16.7525 31.4772 17.5727 32.1887 18.2052C32.9002 18.8376 33.7699 19.1539 34.7976 19.1539C35.8452 19.1539 36.616 18.9266 37.1101 18.472C37.6042 18.0174 37.9797 17.5134 38.2367 16.96L41.2903 18.5609C41.0136 19.0748 40.6084 19.6381 40.0748 20.2508C39.5609 20.8438 38.8692 21.3576 37.9995 21.7925C37.1299 22.2075 36.023 22.4151 34.679 22.4151ZM31.0917 12.9576H37.9699C37.8908 12.1078 37.5449 11.4259 36.9322 10.912C36.3393 10.3981 35.5586 10.1412 34.5901 10.1412C33.5821 10.1412 32.7816 10.3981 32.1887 10.912C31.5957 11.4259 31.2301 12.1078 31.0917 12.9576ZM53.3067 22.4151C51.9825 22.4151 50.9646 22.1878 50.2531 21.7332C49.5416 21.2786 49.0178 20.7746 48.6818 20.2212H48.1481V22H44.4719V1.24706H48.2074V8.98494H48.7411C48.9585 8.62918 49.2451 8.29318 49.6008 7.97694C49.9764 7.66071 50.4606 7.40376 51.0536 7.20612C51.6663 6.9887 52.4173 6.88 53.3067 6.88C54.4926 6.88 55.5896 7.17647 56.5976 7.76941C57.6056 8.34259 58.4159 9.19247 59.0286 10.3191C59.6413 11.4456 59.9477 12.8094 59.9477 14.4104V14.8847C59.9477 16.4856 59.6413 17.8494 59.0286 18.976C58.4159 20.1026 57.6056 20.9624 56.5976 21.5553C55.5896 22.1285 54.4926 22.4151 53.3067 22.4151ZM52.1801 19.1539C53.3265 19.1539 54.2851 18.7882 55.0559 18.0569C55.8267 17.3059 56.2121 16.2188 56.2121 14.7958V14.4993C56.2121 13.0762 55.8267 11.9991 55.0559 11.2678C54.3048 10.5167 53.3463 10.1412 52.1801 10.1412C51.0338 10.1412 50.0752 10.5167 49.3044 11.2678C48.5336 11.9991 48.1481 13.0762 48.1481 14.4993V14.7958C48.1481 16.2188 48.5336 17.3059 49.3044 18.0569C50.0752 18.7882 51.0338 19.1539 52.1801 19.1539ZM68.8673 22.4151C66.9502 22.4151 65.3789 22 64.1535 21.1699C62.9281 20.3398 62.1869 19.1539 61.9299 17.6122L65.369 16.7228C65.5073 17.4146 65.7346 17.9581 66.0509 18.3534C66.3869 18.7487 66.7921 19.0353 67.2664 19.2132C67.7605 19.3713 68.2942 19.4504 68.8673 19.4504C69.737 19.4504 70.3793 19.3021 70.7944 19.0056C71.2095 18.6894 71.417 18.304 71.417 17.8494C71.417 17.3948 71.2193 17.0489 70.8241 16.8118C70.4288 16.5548 69.7963 16.3473 68.9266 16.1892L68.0965 16.0409C67.0688 15.8433 66.1299 15.5765 65.2801 15.2405C64.4302 14.8847 63.7483 14.4005 63.2344 13.7878C62.7205 13.1751 62.4636 12.3845 62.4636 11.416C62.4636 9.95341 62.9972 8.83671 64.0645 8.06588C65.1318 7.27529 66.5351 6.88 68.2744 6.88C69.9149 6.88 71.2786 7.24565 72.3657 7.97694C73.4528 8.70823 74.1643 9.66682 74.5003 10.8527L71.0316 11.92C70.8735 11.1689 70.5473 10.6353 70.0532 10.3191C69.5789 10.0028 68.9859 9.84471 68.2744 9.84471C67.5629 9.84471 67.0193 9.97318 66.6438 10.2301C66.2683 10.4673 66.0805 10.8033 66.0805 11.2381C66.0805 11.7125 66.2782 12.0682 66.6735 12.3054C67.0688 12.5228 67.6024 12.6908 68.2744 12.8094L69.1045 12.9576C70.2113 13.1553 71.2095 13.4221 72.0989 13.7581C73.0081 14.0744 73.7196 14.5388 74.2335 15.1515C74.7671 15.7445 75.0339 16.5548 75.0339 17.5826C75.0339 19.1242 74.4706 20.32 73.3441 21.1699C72.2372 22 70.745 22.4151 68.8673 22.4151ZM77.6897 22V7.29506H81.4253V22H77.6897ZM79.5575 5.57553C78.8855 5.57553 78.3123 5.35812 77.838 4.92329C77.3834 4.48847 77.1561 3.91529 77.1561 3.20376C77.1561 2.49224 77.3834 1.91906 77.838 1.48423C78.3123 1.04941 78.8855 0.831999 79.5575 0.831999C80.2493 0.831999 80.8224 1.04941 81.277 1.48423C81.7316 1.91906 81.9589 2.49224 81.9589 3.20376C81.9589 3.91529 81.7316 4.48847 81.277 4.92329C80.8224 5.35812 80.2493 5.57553 79.5575 5.57553ZM90.58 22C89.6116 22 88.821 21.7035 88.2083 21.1106C87.6153 20.4979 87.3189 19.6875 87.3189 18.6795V10.3784H83.6426V7.29506H87.3189V2.72941H91.0544V7.29506H95.0864V10.3784H91.0544V18.0273C91.0544 18.6202 91.3311 18.9167 91.8845 18.9167H94.7306V22H90.58ZM104.029 22.4151C102.567 22.4151 101.272 22.1087 100.145 21.496C99.0386 20.8635 98.169 19.984 97.5365 18.8574C96.9238 17.7111 96.6175 16.3671 96.6175 14.8254V14.4696C96.6175 12.928 96.9238 11.5939 97.5365 10.4673C98.1492 9.32094 99.009 8.44141 100.116 7.82871C101.223 7.19623 102.507 6.88 103.97 6.88C105.413 6.88 106.668 7.20612 107.735 7.85835C108.802 8.49082 109.633 9.38023 110.225 10.5266C110.818 11.6532 111.115 12.9675 111.115 14.4696V15.7445H100.412C100.452 16.7525 100.827 17.5727 101.539 18.2052C102.25 18.8376 103.12 19.1539 104.148 19.1539C105.195 19.1539 105.966 18.9266 106.46 18.472C106.954 18.0174 107.33 17.5134 107.587 16.96L110.641 18.5609C110.364 19.0748 109.959 19.6381 109.425 20.2508C108.911 20.8438 108.219 21.3576 107.35 21.7925C106.48 22.2075 105.373 22.4151 104.029 22.4151ZM100.442 12.9576H107.32C107.241 12.1078 106.895 11.4259 106.282 10.912C105.689 10.3981 104.909 10.1412 103.94 10.1412C102.932 10.1412 102.132 10.3981 101.539 10.912C100.946 11.4259 100.58 12.1078 100.442 12.9576Z" fill="#01303A"/>
</svg>
